<?xml version="1.0" encoding="utf-8"?><svg xmlns="http://www.w3.org/2000/svg" xmlns:xlink="http://www.w3.org/1999/xlink" width="200px" height="200px" viewBox="0 0 100 100" preserveAspectRatio="xMidYMid" style="margin-right:-2px;display:block;background-repeat-y:initial;background-repeat-x:initial;animation-play-state:paused" ><g transform="translate(50 50)" style="transform:matrix(1, 0, 0, 1, 50, 50);animation-play-state:paused" ><g transform="matrix(1,0,0,1,0,0)" style="transform:matrix(1, 0, 0, 1, 0, 0);animation-play-state:paused" ><path d="M25.666125535421198 -13.5 L48.6661255354212 -13.5 L48.6661255354212 13.5 L25.666125535421198 13.5 A29 29 0 0 1 24.52440571880052 15.47751673039523 L24.52440571880052 15.47751673039523 L36.02440571880052 35.39610101743732 L12.641719816620682 48.89610101743732 L1.1417198166206803 28.97751673039523 A29 29 0 0 1 -1.1417198166206703 28.977516730395234 L-1.1417198166206703 28.977516730395234 L-12.641719816620665 48.896101017437324 L-36.02440571880051 35.39610101743733 L-24.524405718800516 15.47751673039524 A29 29 0 0 1 -25.666125535421195 13.500000000000004 L-25.666125535421195 13.500000000000004 L-48.666125535421195 13.500000000000007 L-48.6661255354212 -13.499999999999993 L-25.666125535421198 -13.499999999999996 A29 29 0 0 1 -24.524405718800526 -15.477516730395221 L-24.524405718800526 -15.477516730395221 L-36.024405718800544 -35.3961010174373 L-12.64171981662072 -48.89610101743732 L-1.1417198166207032 -28.97751673039523 A29 29 0 0 1 1.141719816620641 -28.977516730395234 L1.141719816620641 -28.977516730395234 L12.641719816620625 -48.89610101743733 L36.0244057188005 -35.396101017437346 L24.524405718800516 -15.477516730395244 A29 29 0 0 1 25.666125535421187 -13.500000000000018 M0 -12A12 12 0 1 0 0 12 A12 12 0 1 0 0 -12" fill="#3e3e4c" style="animation-play-state:paused" ></path></g></g><!-- generated by https://loading.io/ --></svg>